<?xml version="1.0" encoding="iso-8859-1"?>
<!-- Generator: Adobe Illustrator 19.0.0, SVG Export Plug-In . SVG Version: 6.00 Build 0)  -->
<svg version="1.1" id="Layer_1" xmlns="http://www.w3.org/2000/svg" xmlns:xlink="http://www.w3.org/1999/xlink" x="0px" y="0px"
	 viewBox="0 0 512 512" style="enable-background:new 0 0 512 512;" xml:space="preserve">
<path style="fill:#A7A9AC;" d="M473.877,427.03H38.123C17.102,427.03,0,409.928,0,388.906V123.094
	C0,102.072,17.102,84.97,38.123,84.97h435.754c21.02,0,38.122,17.102,38.122,38.123v265.813
	C512,409.928,494.898,427.03,473.877,427.03z"/>
<path style="fill:#808285;" d="M473.877,84.97H256v342.06h217.877c21.021,0,38.123-17.102,38.123-38.123V123.094
	C512,102.072,494.898,84.97,473.877,84.97z"/>
<g>
	<path style="fill:#B9F7F9;" d="M244.017,209.157h187.37c9.024,0,16.34-7.316,16.34-16.34c0-9.024-7.316-16.34-16.34-16.34h-187.37
		c-9.024,0-16.34,7.316-16.34,16.34C227.677,201.841,234.993,209.157,244.017,209.157z"/>
	<path style="fill:#B9F7F9;" d="M431.387,240.749h-187.37c-9.024,0-16.34,7.316-16.34,16.34c0,9.024,7.316,16.34,16.34,16.34h187.37
		c9.024,0,16.34-7.316,16.34-16.34C447.728,248.065,440.411,240.749,431.387,240.749z"/>
	<path style="fill:#B9F7F9;" d="M337.702,302.843h-93.685c-9.024,0-16.34,7.316-16.34,16.34c0,9.024,7.316,16.34,16.34,16.34h93.685
		c9.024,0,16.34-7.316,16.34-16.34C354.043,310.159,346.726,302.843,337.702,302.843z"/>
</g>
<path style="fill:#00D8E0;" d="M164.494,356.221H80.613c-9.024,0-16.34-7.316-16.34-16.34v-41.94
	c0-32.136,26.145-58.281,58.281-58.281s58.281,26.145,58.281,58.281v41.94C180.834,348.905,173.518,356.221,164.494,356.221z"/>
<path style="fill:#B9F7F9;" d="M122.553,272.34c-32.136,0-58.281-26.145-58.281-58.281s26.145-58.281,58.281-58.281
	s58.281,26.145,58.281,58.281S154.689,272.34,122.553,272.34z"/>
<g>
	<path style="fill:#00D8E0;" d="M431.387,176.477H256v32.681h175.387c9.024,0,16.34-7.316,16.34-16.34
		C447.728,183.793,440.411,176.477,431.387,176.477z"/>
	<path style="fill:#00D8E0;" d="M431.387,240.749H256v32.681h175.387c9.024,0,16.34-7.316,16.34-16.34
		C447.728,248.065,440.411,240.749,431.387,240.749z"/>
	<path style="fill:#00D8E0;" d="M337.702,302.843H256v32.681h81.702c9.024,0,16.34-7.316,16.34-16.34
		C354.043,310.159,346.726,302.843,337.702,302.843z"/>
</g>
<g>
</g>
<g>
</g>
<g>
</g>
<g>
</g>
<g>
</g>
<g>
</g>
<g>
</g>
<g>
</g>
<g>
</g>
<g>
</g>
<g>
</g>
<g>
</g>
<g>
</g>
<g>
</g>
<g>
</g>
</svg>
